<svg width="794" height="98" viewBox="0 0 794 98" fill="none" xmlns="http://www.w3.org/2000/svg">
<path d="M49.3506 0C49.5513 0.166563 49.8108 0.123256 50.0674 0.143555C50.3342 0.16469 50.6062 0.189893 50.8701 0.210938C54.2662 0.481932 57.4508 1.73918 60.127 3.84375C63.0876 5.99998 64.9181 9.07225 67.0039 12.001C69.3286 15.2653 71.6808 18.67 74.4678 21.5635C77.5591 24.7727 81.2315 27.3433 84.8359 29.9375C87.4412 31.8127 90.2156 33.5931 92.3242 36.0566C94.868 39.1193 96.839 42.889 97.1914 46.8984C97.1941 46.9253 97.3045 47.0146 97.3262 47.0303V50.0742C97.2848 50.1151 97.2436 50.1564 97.2031 50.1973C97.077 50.8386 97.036 51.4898 96.918 52.1357C96.7999 52.7544 96.6532 53.3677 96.4766 53.9727C95.8548 56.1687 94.0618 59.1003 92.5947 60.8789C91.0808 62.7135 89.201 64.0584 87.2998 65.4385L83.9365 67.875C80.8727 70.0678 77.677 72.4466 74.9961 75.1064C71.827 78.2509 69.2048 82.1666 66.6055 85.7842C65.646 87.1193 64.2975 89.3045 63.1855 90.5029L63.1328 90.5596C63.0451 91.1057 60.3413 93.3364 59.6895 93.8086C57.8123 95.1955 55.6752 96.19 53.4053 96.7334C53.0232 96.8254 51.5196 97.0397 51.3369 97.1172L51.3623 97.1602C52.021 97.2376 55.9651 97.0726 56.2646 97.2393L56.3203 97.3271H40.9678C41.1759 97.0497 41.9516 97.1964 42.2793 97.1641C42.7834 97.1145 45.8194 97.2588 46.04 97.1211C44.3393 96.8633 40.876 96.1038 39.5322 94.9639L39.4219 94.9014C34.7622 92.26 32.9477 88.9459 29.9863 84.7188C28.0508 81.9562 25.4638 78.4365 23.2002 76.04C20.7112 73.405 17.3968 70.8009 14.4502 68.6855L10.2148 65.6533C8.13373 64.1538 6.02961 62.6453 4.4248 60.626C2.76634 58.545 1.51706 56.1667 0.798828 53.6025C0.43181 52.2922 0.271453 51.0356 0.167969 49.6865C0.158658 49.5651 0.082791 49.5236 0 49.4443V48.7725C0.0481683 48.7392 0.19061 48.6323 0.193359 48.5684C0.208961 48.1996 0.208852 47.8306 0.225586 47.4619C0.247416 47.0455 0.283239 46.6298 0.333008 46.2158C0.777576 42.7162 2.19739 39.4123 4.43066 36.6816C6.60691 34.0263 9.53941 32.0317 12.3135 30.0557C15.7156 27.6324 19.1838 25.1661 22.1807 22.2402C25.2579 19.236 27.8978 15.4933 30.4121 12.0107C32.6875 8.85882 34.1357 6.18329 37.3672 3.80762C40.0102 1.86474 42.3329 0.87741 45.582 0.351562C46.1576 0.259396 46.7377 0.193748 47.3193 0.154297C47.6274 0.135305 47.9778 0.182552 48.2148 0H49.3506ZM512.33 12.6201C523.11 12.6201 531.25 15.48 538.4 20.21L532.79 32.0898C527.07 28.3499 519.59 26.3701 512.33 26.3701C508.59 26.3701 501.55 27.8004 501.55 33.1904C501.55 37.8101 506.72 39.4604 513.76 41.1104C526.41 44.0803 541.59 48.8099 541.59 64.0996C541.59 79.4996 526.63 86.2099 512.33 86.21C495.28 86.21 487.25 79.7203 483.29 76.5303L488.9 64.6504C494.62 68.8303 501.44 72.46 512.33 72.46C518.27 72.4599 525.53 69.7096 525.53 64.0996C525.53 58.5999 519.15 57.1698 512.88 55.6299C499.57 52.5499 485.821 48.04 485.82 33.1904C485.82 19.4404 498.69 12.6201 512.33 12.6201ZM228.104 29.0918C234.469 29.0918 241.275 31.6161 245.227 36.8848V30.1895H259.604V85.0703H245.227V78.4844C241.385 83.753 234.469 86.168 228.104 86.168C212.956 86.1679 203.297 73.4357 203.297 57.6299C203.297 41.824 212.956 29.0919 228.104 29.0918ZM568.351 30H583.531V41.8799H568.351V67.0703C568.351 71.8 570.661 73.3398 573.301 73.3398C576.82 73.3398 579.9 71.3607 580.341 71.0303L584.521 81.9199C581.221 84.1199 576.381 86.0996 570.551 86.0996C559.551 86.0996 553.611 79.72 553.611 67.29V41.8799H545.581V30H553.611V19.4404L568.351 16.1396V30ZM603.535 60.9102C603.535 68.61 606.835 72.1298 613.655 72.1299C621.355 72.1299 625.096 65.6401 625.096 58.1602V30H639.836V85H625.976V77.2998C622.676 82.6898 615.195 86.0996 608.815 86.0996C593.635 86.0996 588.796 77.1896 588.796 62.8896V30H603.535V60.9102ZM703.591 85H689.621V78.4004C685.661 83.6803 678.62 86.0996 672.021 86.0996C656.841 86.0995 647.161 73.3399 647.161 57.5C647.161 41.66 657.061 28.9004 672.241 28.9004C678.621 28.9005 684.891 31.4303 688.851 36.1602V12.6201H703.591V85ZM764.084 28.9004C780.584 28.9004 793.563 41.55 793.563 57.5C793.563 73.45 780.584 86.0996 764.084 86.0996C747.694 86.0996 734.714 73.45 734.714 57.5C734.714 41.55 747.694 28.9004 764.084 28.9004ZM325.955 59.4961C327.05 63.3294 327.709 68.1461 327.712 68.167C327.714 68.1405 328.153 63.3271 329.029 59.6055L335.725 30.1895H350.213L356.909 59.6055C357.784 63.3263 358.332 68.1385 358.335 68.167C358.337 68.1476 358.886 63.33 359.981 59.4961L368.434 30.1895H382.703L365.141 85.1807H351.859L344.506 55.5439C343.627 51.8121 343.078 47.2021 343.078 47.2021C343.078 47.2021 342.42 51.8121 341.542 55.5439L334.188 85.1807H320.797L303.235 30.1895H317.614L325.955 59.4961ZM163.353 13.9443C186.732 13.9443 201.44 30.0797 201.44 49.5078C201.44 68.9357 186.732 85.0703 163.353 85.0703H134.814V13.9443H163.353ZM300.064 45.1172C287.332 45.1173 281.076 50.9344 281.076 63.9961V85.0703H266.367V30.1895H280.856V40.7266C282.393 36.2263 287.991 29.0919 300.064 29.0918V45.1172ZM402.711 85.0703H388.003V30.1895H402.711V85.0703ZM443.469 29.0918C457.957 29.0918 463.006 38.4214 463.006 53.459V85.0703H448.298V55.3252C448.298 47.3125 446.212 43.0312 438.748 43.0312C431.395 43.0315 426.456 48.9589 426.456 57.3008V85.0703H411.747V30.1895H426.126V37.543C430.516 31.5062 436.773 29.0918 443.469 29.0918ZM727.308 85H712.567V30H727.308V85ZM48.5859 18.9248C48.3458 19.0084 47.8642 19.1512 47.7227 19.3477C45.7827 22.04 43.8789 24.8544 41.8955 27.5098C38.8463 31.6138 35.3543 35.3695 31.4824 38.709C28.9234 40.9048 26.386 42.7548 23.6514 44.7188L21.2207 46.4824C20.3213 47.128 18.2061 48.1808 19.7285 49.5986C20.0396 49.8885 20.5881 50.2219 20.9492 50.4766L22.9951 51.9258C24.6322 53.0856 26.2401 54.2863 27.8174 55.5264C29.5408 56.8888 31.2573 58.2513 32.8906 59.7158C38.6636 64.8921 43.0619 71.1895 47.458 77.5127C47.5833 77.693 47.829 77.9636 48.0342 78.0449C48.2787 78.1411 48.542 78.1785 48.8037 78.1553C49.7045 77.9853 49.8937 77.4702 50.3809 76.7705L51.6064 75.0059C52.6165 73.5581 53.6406 72.1202 54.6787 70.6924C58.16 65.8109 62.2643 61.4051 66.8887 57.5889C68.249 56.4649 70.0347 55.0776 71.4639 54.0264L76.082 50.6768C76.4497 50.409 76.9743 49.9981 77.3682 49.7764C78.1889 49.3146 78.4648 48.1578 77.6221 47.5547C75.3137 45.9029 72.9528 44.2641 70.6729 42.5654C65.8072 39.0039 61.3988 34.9516 57.585 30.2744C54.7989 26.8575 52.4384 23.1645 49.8682 19.5928C49.6592 19.3029 48.9528 18.8363 48.5859 18.9248ZM231.835 42.7021C223.932 42.7024 218.225 49.0685 218.225 57.6299C218.225 66.301 223.932 72.5574 231.835 72.5576C239.408 72.5576 244.896 66.4109 244.896 57.6299C244.896 49.0684 239.408 42.7021 231.835 42.7021ZM675.761 42.54C667.841 42.54 662.121 48.92 662.121 57.5C662.121 66.19 667.841 72.46 675.761 72.46C683.351 72.46 688.851 66.3 688.851 57.5C688.851 48.92 683.351 42.54 675.761 42.54ZM764.084 42.54C755.834 42.54 749.674 48.92 749.674 57.5C749.674 66.19 755.834 72.46 764.084 72.46C772.334 72.4599 778.494 66.19 778.494 57.5C778.494 48.92 772.334 42.5401 764.084 42.54ZM150.182 71.8994H162.694C176.305 71.8993 185.305 62.4595 185.306 49.5078C185.306 36.6656 176.305 27.1154 162.694 27.1152H150.182V71.8994ZM395.247 6.04102C400.076 6.04102 404.028 9.99269 404.028 14.8223C404.028 19.5421 400.076 23.4932 395.247 23.4932C390.527 23.4931 386.575 19.542 386.575 14.8223C386.575 9.99273 390.527 6.04108 395.247 6.04102ZM719.828 5.7998C724.668 5.79997 728.628 9.75989 728.628 14.5996C728.628 19.3295 724.668 23.2899 719.828 23.29C715.098 23.29 711.138 19.3296 711.138 14.5996C711.138 9.75978 715.098 5.7998 719.828 5.7998Z" fill="#F6F5F3"/>
</svg>

